# xmcd CD database file
#
# Track frame offsets:
#	182
#	18155
#	32827
#	59505
#	71042
#	85490
#	102285
#	126345
#	137735
#	150215
#	166297
#	187770
#	201150
#
# Disc length: 2770 seconds
#
# Revision: 0
# Processed by: cddbd v1.5.1PL0 Copyright (c) Steve Scherf et al.
# Submitted via: CDex 1.51
#
DISCID=ab0ad00d
DTITLE=Mark David Manders and Nuevo Tejas - Headin' Out West
DYEAR=1994
DGENRE=Country
TTITLE0=Three Day Weekend
TTITLE1=Friend Like You
TTITLE2=Sarah and Jesse
TTITLE3=Jed Clampett
TTITLE4=Daddy's Song
TTITLE5=Last Night
TTITLE6=Headin' Out West
TTITLE7=Tracy Walls
TTITLE8=Mountain of Gold
TTITLE9=The Fiddle Plays
TTITLE10=Bedford, Texas
TTITLE11=The New Song
TTITLE12=Misc
EXTD=YEAR: 1994
EXTT0=
EXTT1=
EXTT2=
EXTT3=
EXTT4=
EXTT5=
EXTT6=
EXTT7=
EXTT8=
EXTT9=
EXTT10=
EXTT11=
EXTT12=
PLAYORDER=
